<?xml version="1.0" encoding="UTF-8"?>
<svg version="1.1" xmlns="http://www.w3.org/2000/svg" width="48" height="48">
<path d="M0 0 C0.33 3.63 0.66 7.26 1 11 C2.65 11.33 4.3 11.66 6 12 C8.23828125 13.84765625 8.23828125 13.84765625 10.3125 16.0625 C11.00988281 16.79597656 11.70726563 17.52945312 12.42578125 18.28515625 C13.20501953 19.13400391 13.20501953 19.13400391 14 20 C18.03294857 18.24885128 20.3225205 15.68628398 23.21875 12.4609375 C25 11 25 11 29 11 C29.33 7.37 29.66 3.74 30 0 C34 -1 34 -1 36 0 C37.48366045 18.37710027 37.48366045 18.37710027 34.03125 24.48046875 C31.5625 27.0625 31.5625 27.0625 29.06640625 29.16015625 C26.59860731 31.00960029 26.59860731 31.00960029 26 35 C18.74 35 11.48 35 4 35 C3.34 33.35 2.68 31.7 2 30 C0.64864177 28.80602887 -0.72868731 27.64107273 -2.125 26.5 C-6.89709452 21.4781027 -6.63034629 16.50958196 -6.5 9.9375 C-6.39423127 6.61935205 -6.23552782 3.31143056 -6 0 C-4 -1 -4 -1 0 0 Z " fill="#FECA7E" transform="translate(9,9)"/>
<path d="M0 0 C1.08667969 -0.01160156 1.08667969 -0.01160156 2.1953125 -0.0234375 C5.99388493 -0.00942063 7.76837084 0.09558056 11 2.25 C12.0625 4.8125 12.0625 4.8125 12 8.25 C9.64311438 12.90727057 6.28213465 18.21106573 2 21.25 C-1.06948343 21.02430269 -2.61664718 20.58572181 -4.94921875 18.54296875 C-5.52285156 17.84816406 -6.09648437 17.15335938 -6.6875 16.4375 C-7.26886719 15.75042969 -7.85023437 15.06335937 -8.44921875 14.35546875 C-10.85651925 11.08711869 -12.05960055 9.24334248 -11.8125 5.125 C-10.11675467 -0.87532963 -5.24682869 -0.05601596 0 0 Z " fill="#EF524F" transform="translate(24,3.75)"/>
<path d="M0 0 C2.12508244 3.18762365 2.5020163 5.26512223 3 9 C2.01 9 1.02 9 0 9 C0 6.03 0 3.06 0 0 Z " fill="#F3A85F" transform="translate(24,35)"/>
</svg>
