<?xml version="1.0" encoding="UTF-8"?>
<svg version="1.1" xmlns="http://www.w3.org/2000/svg" width="50" height="50">
<path d="M0 0 C6 1 6 1 9 2.6875 C11.95556491 4.33101459 11.95556491 4.33101459 15.125 3.3125 C17.88881801 2.09941071 17.88881801 2.09941071 20 0.875 C22.92476753 -0.40458579 24.80980989 -0.3611536 28 0 C29.51541418 0.6747266 31.01479752 1.38614297 32.5 2.125 C35.78357391 3.6922857 36.6080653 4.07394994 40.3125 3.375 C41.93828655 2.54320223 43.56346728 1.71021683 45.1875 0.875 C47 0 47 0 50 0 C50 13.53 50 27.06 50 41 C38.57142857 46.71428571 38.57142857 46.71428571 33 45 C31.96875 44.46375 30.9375 43.9275 29.875 43.375 C26.51122477 41.76623793 25.46370892 41.78770188 22 43 C21.030625 43.515625 20.06125 44.03125 19.0625 44.5625 C15.48523841 46.24162279 13.90823032 46.6012662 10 46 C6.7 44.35 3.4 42.7 0 41 C0 27.47 0 13.94 0 0 Z M20.1875 5 C16.58174702 6.85231551 14.11154772 7.62567031 10 7 C7.9697411 6.06295743 5.96303418 5.07074592 4 4 C3.34 4 2.68 4 2 4 C2 15.22 2 26.44 2 38 C10.67201859 43.561367 10.67201859 43.561367 15.375 42.4375 C16.92086489 41.59095494 18.46386529 40.73907578 20 39.875 C22.92476753 38.59541421 24.80980989 38.6388464 28 39 C29.51541418 39.6747266 31.01479752 40.38614297 32.5 41.125 C35.72764656 42.65759057 36.61438829 43.06674049 40.25 42.4375 C41.1575 41.963125 42.065 41.48875 43 41 C43.87164795 40.63479248 44.7432959 40.26958496 45.64135742 39.89331055 C48.37436244 38.13146478 48.37436244 38.13146478 48.56762695 34.53833008 C48.56683711 33.11515157 48.53868344 31.69181719 48.48828125 30.26953125 C48.47766914 29.14390022 48.47766914 29.14390022 48.46684265 27.99552917 C48.43886657 25.60016905 48.37613009 23.20715253 48.3125 20.8125 C48.28742092 19.18818482 48.26460706 17.56383297 48.24414062 15.93945312 C48.18903043 11.95873329 48.10274233 7.97976385 48 4 C47.07960937 4.31195313 46.15921875 4.62390625 45.2109375 4.9453125 C36.80089974 7.70773366 36.80089974 7.70773366 32.8828125 6.16796875 C31.50127619 5.45189773 30.1370831 4.70087903 28.796875 3.91015625 C25.35168607 2.16509316 23.2883664 3.2385611 20.1875 5 Z " fill="#000000" transform="translate(0,2)"/>
<path d="M0 0 C2.64 0 5.28 0 8 0 C8 2.66666667 8 5.33333333 8 8 C5.36 8 2.72 8 0 8 C0 5.36 0 2.72 0 0 Z " fill="#000000" transform="translate(8,32)"/>
<path d="M0 0 C0.99 0 1.98 0 3 0 C3 0.99 3 1.98 3 3 C1.68 3 0.36 3 -1 3 C-0.67 2.01 -0.34 1.02 0 0 Z " fill="#000000" transform="translate(36,36)"/>
<path d="M0 0 C0.99 0 1.98 0 3 0 C2.67 1.32 2.34 2.64 2 4 C1.34 4 0.68 4 0 4 C0 2.68 0 1.36 0 0 Z " fill="#000000" transform="translate(40,33)"/>
<path d="M0 0 C1.32 0 2.64 0 4 0 C4 0.99 4 1.98 4 3 C2.68 2.67 1.36 2.34 0 2 C0 1.34 0 0.68 0 0 Z " fill="#000000" transform="translate(21,33)"/>
<path d="M0 0 C0.99 0 1.98 0 3 0 C2.34 1.32 1.68 2.64 1 4 C0.34 3.67 -0.32 3.34 -1 3 C-0.67 2.01 -0.34 1.02 0 0 Z " fill="#000000" transform="translate(43,29)"/>
<path d="M0 0 C0.99 0 1.98 0 3 0 C3 1.32 3 2.64 3 4 C2.01 3.67 1.02 3.34 0 3 C0 2.01 0 1.02 0 0 Z " fill="#000000" transform="translate(43,19)"/>
<path d="M0 0 C1.32 0 2.64 0 4 0 C3.67 0.99 3.34 1.98 3 3 C2.01 3 1.02 3 0 3 C0 2.01 0 1.02 0 0 Z " fill="#000000" transform="translate(14,18)"/>
<path d="M0 0 C0.99 0.33 1.98 0.66 3 1 C2.67 1.99 2.34 2.98 2 4 C1.01 3.67 0.02 3.34 -1 3 C-0.67 2.01 -0.34 1.02 0 0 Z " fill="#000000" transform="translate(10,16)"/>
<path d="M0 0 C0.99 0.33 1.98 0.66 3 1 C3 1.99 3 2.98 3 4 C2.01 4 1.02 4 0 4 C0 2.68 0 1.36 0 0 Z " fill="#000000" transform="translate(41,14)"/>
<path d="M0 0 C1.32 0 2.64 0 4 0 C3.67 0.99 3.34 1.98 3 3 C2.01 3 1.02 3 0 3 C0 2.01 0 1.02 0 0 Z " fill="#000000" transform="translate(32,11)"/>
<path d="M0 0 C1.32 0 2.64 0 4 0 C3.67 0.99 3.34 1.98 3 3 C2.01 3 1.02 3 0 3 C0 2.01 0 1.02 0 0 Z " fill="#000000" transform="translate(27,11)"/>
<path d="M0 0 C0.99 0.33 1.98 0.66 3 1 C3 1.66 3 2.32 3 3 C1.68 3 0.36 3 -1 3 C-0.67 2.01 -0.34 1.02 0 0 Z " fill="#000000" transform="translate(31,36)"/>
<path d="M0 0 C0.66 0.33 1.32 0.66 2 1 C1.67 1.99 1.34 2.98 1 4 C0.01 3.67 -0.98 3.34 -2 3 C-1.34 2.01 -0.68 1.02 0 0 Z " fill="#000000" transform="translate(18,33)"/>
<path d="M0 0 C0.66 0 1.32 0 2 0 C2 1.32 2 2.64 2 4 C1.01 3.67 0.02 3.34 -1 3 C-0.67 2.01 -0.34 1.02 0 0 Z " fill="#000000" transform="translate(44,24)"/>
<path d="M0 0 C0.66 0 1.32 0 2 0 C1.67 1.32 1.34 2.64 1 4 C0.34 4 -0.32 4 -1 4 C-0.67 2.68 -0.34 1.36 0 0 Z " fill="#000000" transform="translate(24,13)"/>
<path d="M0 0 C0.66 0.33 1.32 0.66 2 1 C2 1.99 2 2.98 2 4 C1.01 4 0.02 4 -1 4 C-0.67 2.68 -0.34 1.36 0 0 Z " fill="#000000" transform="translate(7,12)"/>
<path d="M0 0 C1.32 0.33 2.64 0.66 4 1 C3.67 1.66 3.34 2.32 3 3 C2.01 2.67 1.02 2.34 0 2 C0 1.34 0 0.68 0 0 Z " fill="#000000" transform="translate(26,35)"/>
<path d="M0 0 C0.99 0 1.98 0 3 0 C3 0.99 3 1.98 3 3 C2.01 3 1.02 3 0 3 C0 2.01 0 1.02 0 0 Z " fill="#000000" transform="translate(19,16)"/>
<path d="M0 0 C0.99 0 1.98 0 3 0 C3 0.99 3 1.98 3 3 C2.01 3 1.02 3 0 3 C0 2.01 0 1.02 0 0 Z " fill="#000000" transform="translate(37,12)"/>
</svg>
