<?xml version="1.0" encoding="UTF-8"?>
<svg version="1.1" xmlns="http://www.w3.org/2000/svg" width="50" height="50">
<path d="M0 0 C0.83208984 -0.00287018 1.66417969 -0.00574036 2.52148438 -0.00869751 C4.27995484 -0.01073812 6.03844801 -0.00520843 7.796875 0.00732422 C10.49009913 0.02337848 13.1818226 0.00747605 15.875 -0.01171875 C17.58333665 -0.00973632 19.29167236 -0.00589264 21 0 C22.20946289 -0.00910904 22.20946289 -0.00910904 23.44335938 -0.0184021 C29.06331784 0.05237501 29.06331784 0.05237501 31.21206665 1.75521851 C33.13248952 4.20540379 32.88856517 6.19703083 32.8984375 9.2734375 C32.90423828 10.99820312 32.90423828 10.99820312 32.91015625 12.7578125 C32.89855469 13.95921875 32.88695312 15.160625 32.875 16.3984375 C32.88660156 17.59984375 32.89820313 18.80125 32.91015625 20.0390625 C32.90628906 21.18890625 32.90242188 22.33875 32.8984375 23.5234375 C32.89505371 24.57789062 32.89166992 25.63234375 32.88818359 26.71875 C32.43843409 29.82343592 31.90683218 30.49106772 29.5 32.3984375 C26.59376282 32.69679217 23.90630697 32.81876378 21 32.796875 C20.16791016 32.79974518 19.33582031 32.80261536 18.47851562 32.80557251 C16.72004516 32.80761312 14.96155199 32.80208343 13.203125 32.78955078 C10.50990087 32.77349652 7.8181774 32.78939895 5.125 32.80859375 C3.41666335 32.80661132 1.70832764 32.80276764 0 32.796875 C-0.80630859 32.80294769 -1.61261719 32.80902039 -2.44335938 32.8152771 C-8.06331784 32.74449999 -8.06331784 32.74449999 -10.21206665 31.04165649 C-12.13248952 28.59147121 -11.88856517 26.59984417 -11.8984375 23.5234375 C-11.90230469 22.37359375 -11.90617188 21.22375 -11.91015625 20.0390625 C-11.89855469 18.83765625 -11.88695312 17.63625 -11.875 16.3984375 C-11.88660156 15.19703125 -11.89820313 13.995625 -11.91015625 12.7578125 C-11.90628906 11.60796875 -11.90242187 10.458125 -11.8984375 9.2734375 C-11.89505371 8.21898437 -11.89166992 7.16453125 -11.88818359 6.078125 C-10.91657566 -0.62902511 -5.66076683 -0.04263392 0 0 Z M-0.5 8.3984375 C-0.83 9.3884375 -1.16 10.3784375 -1.5 11.3984375 C-3.5625 12.0859375 -3.5625 12.0859375 -5.5 12.3984375 C-4.18 12.3984375 -2.86 12.3984375 -1.5 12.3984375 C-1.5 16.0284375 -1.5 19.6584375 -1.5 23.3984375 C-0.84 23.7284375 -0.18 24.0584375 0.5 24.3984375 C0.5 19.1184375 0.5 13.8384375 0.5 8.3984375 C0.17 8.3984375 -0.16 8.3984375 -0.5 8.3984375 Z M4.8359375 9.5859375 C3.0835211 11.96348489 3.09883096 13.46750512 3.125 16.3984375 C3.11726563 17.2646875 3.10953125 18.1309375 3.1015625 19.0234375 C3.5715668 21.82503179 4.2174788 22.74783147 6.5 24.3984375 C9.09889783 24.47868408 9.09889783 24.47868408 11.5 23.3984375 C13.46742009 20.40769489 13.71827683 18.29017 13.3125 14.7734375 C13.23644531 13.99742188 13.16039062 13.22140625 13.08203125 12.421875 C12.62586066 10.01558093 12.62586066 10.01558093 9.5 8.3984375 C6.56627515 8.10799918 6.56627515 8.10799918 4.8359375 9.5859375 Z M16.5 10.3984375 C15.84333483 12.45109362 15.84333483 12.45109362 15.6875 14.7734375 C15.59855469 15.54429688 15.50960938 16.31515625 15.41796875 17.109375 C15.5124963 19.74714379 16.05490244 21.20169523 17.5 23.3984375 C19.90110217 24.47868408 19.90110217 24.47868408 22.5 24.3984375 C24.7825212 22.74783147 25.4284332 21.82503179 25.8984375 19.0234375 C25.89070313 18.1571875 25.88296875 17.2909375 25.875 16.3984375 C25.88273437 15.5321875 25.89046875 14.6659375 25.8984375 13.7734375 C25.42684441 10.96237281 24.8027982 10.04174889 22.5 8.3984375 C19.31509993 8.1210874 19.31509993 8.1210874 16.5 10.3984375 Z " fill="#000000" transform="translate(14.5,8.6015625)"/>
<path d="M0 0 C1.66611905 -0.042721 3.33382885 -0.04063832 5 0 C6 1 6 1 6.09765625 3.28515625 C6.08605469 4.20167969 6.07445312 5.11820313 6.0625 6.0625 C6.05347656 6.98160156 6.04445313 7.90070312 6.03515625 8.84765625 C6.02355469 9.55792969 6.01195312 10.26820312 6 11 C4.02 11.99 4.02 11.99 2 13 C0.5 12 0.5 12 -1 10 C-1.42372144 6.54667028 -1.58512383 3.17024765 0 0 Z " fill="#000000" transform="translate(20,19)"/>
<path d="M0 0 C1.2065625 0.0309375 1.2065625 0.0309375 2.4375 0.0625 C3.93248913 3.05247825 3.55327446 5.76292775 3.4375 9.0625 C3.1075 10.0525 2.7775 11.0425 2.4375 12.0625 C0.5 12.875 0.5 12.875 -1.5625 13.0625 C-3.5625 11.0625 -3.5625 11.0625 -3.79296875 8.71484375 C-3.77878906 7.81894531 -3.76460937 6.92304688 -3.75 6 C-3.74355469 5.10152344 -3.73710937 4.20304687 -3.73046875 3.27734375 C-3.48779367 0.0774189 -3.2363907 0.07893636 0 0 Z " fill="#000000" transform="translate(35.5625,18.9375)"/>
</svg>
